<?xml version="1.0" standalone="no"?>
<!DOCTYPE svg PUBLIC "-//W3C//DTD SVG 20010904//EN"
 "http://www.w3.org/TR/2001/REC-SVG-20010904/DTD/svg10.dtd">
<svg version="1.0" xmlns="http://www.w3.org/2000/svg"
 width="1467.000000pt" height="429.000000pt" viewBox="0 0 1467.000000 429.000000"
 preserveAspectRatio="xMidYMid meet">
<metadata>
Created by potrace 1.15, written by Peter Selinger 2001-2017
</metadata>
<g transform="translate(0.000000,429.000000) scale(0.100000,-0.100000)"
fill="#000000" stroke="none">
<path d="M5565 4280 c-86 -13 -207 -50 -290 -89 -149 -71 -280 -178 -469 -383
l-118 -127 -121 81 c-67 44 -156 97 -197 117 -134 64 -284 55 -455 -29 -151
-75 -225 -163 -225 -270 0 -103 71 -193 198 -253 56 -27 82 -32 153 -35 179
-8 349 67 565 249 92 77 95 79 118 64 l24 -16 -33 -72 c-54 -116 -162 -434
-232 -682 -36 -126 -70 -242 -75 -257 -6 -15 -44 -59 -85 -98 -60 -57 -80 -71
-101 -68 -25 3 -27 7 -30 51 -4 63 28 189 71 276 l35 70 -125 86 -124 86 -22
-27 c-12 -15 -45 -55 -75 -88 -125 -143 -277 -381 -403 -631 -75 -147 -90
-172 -85 -135 28 179 152 477 267 640 22 31 39 60 39 65 0 11 -211 158 -232
163 -14 3 -22 -8 -84 -116 -38 -66 -42 -70 -47 -46 -3 16 5 48 20 82 27 61 25
80 -3 33 -20 -34 -34 -40 -34 -16 0 31 -62 175 -101 236 -51 78 -147 179 -208
218 -56 36 -202 91 -240 91 -61 0 -96 -14 -138 -56 -29 -29 -43 -52 -43 -70 0
-21 4 -25 18 -21 9 3 37 13 62 21 25 8 77 24 117 36 l72 22 63 -29 c132 -62
224 -162 304 -328 24 -49 49 -117 55 -151 12 -60 12 -61 -31 -169 -40 -98 -47
-109 -79 -122 -48 -20 -108 -12 -159 22 -33 22 -53 48 -93 125 -81 155 -171
240 -253 240 -99 0 -197 -125 -297 -380 -21 -52 -38 -89 -38 -82 -2 28 83 260
122 336 54 105 54 105 25 78 -65 -60 -163 -282 -219 -499 -48 -189 -109 -574
-109 -694 0 -38 6 -42 222 -183 l27 -18 151 299 c83 164 148 285 146 268 -3
-16 -14 -79 -25 -140 -42 -235 -37 -401 16 -505 33 -65 74 -90 146 -90 54 0
56 14 4 24 -19 3 -44 18 -57 31 l-24 25 33 -16 c76 -38 214 6 349 110 l69 54
36 -36 c20 -20 38 -34 40 -32 2 3 16 52 31 110 69 263 231 592 434 883 41 59
76 107 77 107 2 0 -5 -33 -16 -72 -64 -250 -42 -388 61 -388 21 0 42 5 45 10
3 6 -4 10 -18 10 -32 0 -57 29 -63 76 l-6 39 21 -33 c27 -42 81 -65 131 -57
80 14 225 127 319 250 12 17 20 25 18 20 -11 -22 -79 -341 -101 -476 l-25
-143 34 -61 c18 -33 56 -109 83 -170 190 -416 248 -538 295 -625 l54 -98 -38
-37 c-118 -114 -99 -252 46 -331 147 -81 303 -84 458 -9 l50 24 48 -25 c215
-109 418 -58 698 174 l84 70 65 -55 c77 -66 152 -103 207 -103 39 1 39 1 -25
23 -94 32 -232 139 -215 166 4 7 30 -7 70 -39 71 -57 120 -80 166 -80 25 0 45
-12 89 -54 103 -98 178 -120 321 -91 88 18 168 52 207 88 31 29 68 94 81 144
6 23 23 66 36 95 65 140 8 282 -129 319 -54 15 -200 5 -296 -21 -41 -11 -80
-20 -86 -20 -25 0 -120 239 -149 375 -26 121 -21 151 34 243 52 86 129 188
180 236 l31 29 -6 -79 c-12 -157 28 -297 106 -368 40 -36 120 -66 174 -65 26
0 20 4 -33 24 -67 25 -114 62 -145 117 -19 32 -19 32 28 -10 58 -54 138 -92
192 -92 90 0 184 75 266 213 46 77 117 242 118 272 0 11 -15 -15 -34 -57 -46
-105 -82 -164 -134 -220 -53 -56 -97 -74 -145 -59 -109 36 -160 208 -127 428
12 82 12 83 59 117 92 67 254 132 431 172 113 26 140 35 140 44 0 6 -15 10
-34 10 -82 0 -132 76 -143 221 -6 77 10 240 28 288 5 13 8 25 6 27 -2 2 -114
-48 -248 -111 l-244 -114 -71 -146 c-76 -156 -145 -349 -165 -461 -12 -66 -16
-72 -89 -150 -41 -44 -98 -113 -125 -152 -26 -40 -50 -70 -52 -68 -3 2 5 62
17 133 25 146 82 381 145 593 24 80 53 177 64 216 20 67 24 72 68 97 55 29
155 57 205 57 24 0 42 8 61 28 15 15 27 30 27 33 0 3 -32 5 -70 6 -75 1 -153
31 -174 65 -25 41 44 220 141 365 67 101 161 202 243 264 39 29 68 54 66 57
-9 8 -188 -93 -246 -139 l-58 -47 25 56 c13 31 34 72 45 90 11 17 18 36 16 40
-2 5 -69 -20 -150 -56 l-147 -64 -40 -102 c-124 -316 -193 -473 -216 -493 -40
-35 -106 -40 -162 -12 -63 32 -70 46 -56 111 36 170 218 436 383 559 39 29 68
54 66 57 -9 8 -188 -93 -246 -139 l-58 -47 25 56 c13 31 34 72 45 90 11 17 18
36 16 40 -2 5 -69 -20 -150 -56 l-147 -64 -46 -117 c-136 -342 -191 -465 -216
-483 -17 -13 -52 -22 -102 -27 -60 -5 -82 -12 -102 -31 -34 -32 -32 -40 15
-40 70 0 150 -43 150 -81 0 -10 -22 -96 -49 -191 -84 -298 -166 -674 -196
-903 l-14 -110 57 -105 c32 -58 68 -130 81 -160 13 -30 48 -104 78 -164 30
-59 53 -109 51 -110 -2 -1 -34 -21 -73 -44 -38 -23 -77 -47 -86 -54 -13 -9
-22 -7 -45 9 -68 47 -182 55 -254 18 -53 -27 -173 -135 -211 -189 -30 -43 -34
-56 -34 -112 0 -62 0 -63 -37 -84 -34 -19 -39 -20 -73 -6 -49 21 -142 112
-200 197 -57 81 -57 80 47 104 95 22 185 20 231 -5 20 -11 41 -20 47 -20 21 0
9 39 -21 68 -52 51 -95 67 -179 67 -83 -1 -122 -16 -177 -67 l-31 -30 -121
243 c-67 133 -131 272 -142 308 -24 78 -39 207 -30 253 l7 33 7 -41 c8 -46 72
-243 83 -253 4 -3 4 10 0 29 -33 160 -38 208 -39 370 -1 265 30 451 129 789
92 310 257 801 269 801 3 0 35 -20 72 -44 157 -101 275 -146 382 -146 75 0
114 18 153 72 116 155 13 351 -251 480 -96 47 -112 52 -176 52 -116 1 -212
-60 -297 -190 -39 -60 -43 -63 -60 -47 -11 9 -15 21 -10 29 21 38 281 299 347
349 202 152 397 226 597 227 303 1 487 -173 534 -505 5 -37 10 -47 23 -45 14
3 16 21 16 128 -1 171 -32 264 -118 353 -88 90 -178 118 -382 116 -77 -1 -162
-5 -190 -9z m-1262 -419 c88 -31 347 -190 347 -214 0 -15 -111 -108 -204 -171
-194 -132 -373 -177 -508 -126 -111 42 -208 146 -208 225 0 81 84 173 215 236
146 70 255 85 358 50z m1015 -112 c56 -27 156 -120 187 -173 39 -67 41 -112 8
-176 -51 -99 -133 -118 -276 -62 -90 35 -287 150 -287 168 0 27 108 170 154
205 81 62 142 72 214 38z m1033 -882 c19 -12 35 -32 37 -43 2 -11 -19 -99 -46
-195 -85 -298 -167 -674 -197 -904 l-14 -110 58 -106 c56 -102 58 -107 50
-155 -4 -27 -8 -77 -8 -111 -1 -58 -3 -63 -23 -63 -13 0 -57 -9 -98 -20 -41
-11 -80 -20 -86 -20 -28 0 -131 271 -155 406 -30 172 30 525 166 984 24 80 52
177 64 216 19 64 25 72 62 94 43 24 112 48 140 49 9 1 31 -9 50 -22z m-3473
-141 c15 -8 57 -48 94 -89 82 -91 125 -111 223 -105 55 3 64 2 61 -12 -57
-193 -87 -388 -93 -608 l-6 -193 49 -50 49 -50 -23 -19 c-29 -24 -125 -60
-158 -60 -72 0 -98 50 -98 185 1 145 59 370 156 604 21 52 35 98 31 101 -20
17 -246 171 -247 168 -1 -2 -8 -16 -15 -33 -21 -50 -354 -655 -358 -651 -6 5
94 423 129 541 51 173 116 285 165 285 8 0 26 -6 41 -14z m4314 -221 c12 -16
28 -34 36 -39 10 -6 -10 -21 -78 -57 -51 -27 -114 -65 -141 -84 -27 -19 -49
-31 -49 -26 0 36 86 233 148 340 l26 44 18 -74 c10 -41 28 -87 40 -104z m-958
-1405 c18 -122 20 -112 -25 -149 -34 -28 -43 -31 -54 -20 -24 25 -115 162
-111 167 8 7 139 41 163 41 17 1 22 -6 27 -39z m737 17 c88 -46 111 -155 54
-252 -36 -62 -61 -80 -110 -79 -54 1 -114 36 -182 106 -52 54 -156 198 -149
206 18 17 155 41 242 41 86 1 107 -2 145 -22z m-958 -271 l31 -39 -30 -24
c-257 -213 -369 -269 -519 -260 -75 4 -195 38 -195 55 0 4 28 27 61 51 33 24
118 94 188 157 101 88 133 112 150 107 17 -4 21 -1 21 18 1 26 19 42 108 95
l54 33 50 -77 c28 -42 64 -95 81 -116z m475 22 c-27 -48 -56 -75 -89 -83 -28
-7 -35 3 -79 131 l-18 51 60 36 61 36 43 -67 43 -67 -21 -37z m-923 -4 c-73
-67 -268 -226 -286 -232 -6 -3 -7 6 -3 22 8 34 -15 43 -50 21 l-26 -17 0 49
c0 128 149 220 360 222 l75 0 -70 -65z m-765 -71 c73 -108 142 -176 222 -219
67 -35 71 -39 48 -45 -119 -33 -330 26 -389 110 -26 36 -28 106 -4 141 20 32
65 80 72 80 3 0 26 -31 51 -67z m1783 17 c44 -58 125 -129 185 -163 40 -22 41
-25 25 -40 -29 -25 -70 -37 -131 -37 -70 0 -125 24 -186 80 l-46 42 31 36 c18
20 41 57 52 84 11 26 22 48 26 48 3 -1 23 -23 44 -50z"/>
<path d="M1740 4123 c-99 -17 -189 -61 -260 -129 -91 -86 -141 -216 -125 -321
l6 -44 -38 42 -38 41 -65 -12 c-285 -50 -585 -224 -776 -450 -37 -44 -69 -80
-72 -80 -6 0 26 50 100 155 35 49 108 136 162 193 80 83 114 111 179 144 127
66 244 189 180 188 -56 -1 -223 -83 -223 -110 0 -5 -51 -63 -113 -127 -134
-140 -190 -211 -287 -358 -166 -254 -303 -604 -339 -865 -48 -345 -42 -579 19
-800 45 -162 184 -400 233 -400 48 0 207 39 282 69 206 83 386 244 479 428 14
29 26 55 26 59 0 4 -48 -42 -107 -102 -157 -158 -337 -275 -447 -290 l-41 -6
-37 75 c-79 159 -117 322 -124 522 l-3 130 14 -100 c8 -55 24 -143 35 -195 25
-109 99 -344 107 -337 2 3 -9 59 -26 126 -52 205 -64 319 -58 546 7 297 42
455 158 695 76 157 172 302 244 368 105 97 293 207 462 272 l75 29 33 -72 c94
-204 83 -496 -23 -609 -20 -22 -35 -28 -67 -28 -45 0 -70 14 -132 73 -66 64
-61 36 7 -36 62 -67 143 -117 187 -117 59 0 119 57 151 143 65 173 67 419 6
566 l-14 33 43 -34 c23 -19 62 -47 88 -61 l45 -27 -72 -217 c-120 -359 -232
-799 -289 -1130 l-25 -144 81 -146 c45 -81 117 -235 161 -342 100 -247 228
-510 306 -626 104 -156 243 -268 332 -267 55 1 79 17 102 69 18 41 18 47 4 61
-12 13 -18 13 -31 2 -9 -7 -46 -23 -83 -36 -60 -20 -70 -21 -94 -8 -41 21
-129 112 -176 181 -84 124 -216 387 -318 634 -44 107 -47 121 -51 224 -4 92 0
129 21 230 73 330 223 646 437 914 l26 33 -34 -118 c-18 -66 -53 -180 -78
-254 -55 -171 -80 -268 -105 -417 -31 -180 -26 -436 10 -502 4 -8 5 29 2 81
-2 54 1 141 9 199 l13 104 7 -108 c8 -120 35 -223 73 -278 30 -44 98 -79 152
-79 83 0 241 66 315 131 39 34 37 34 -46 -6 -110 -53 -181 -32 -226 67 -22 49
-24 65 -23 213 0 120 6 191 22 282 44 244 121 499 199 662 24 51 41 97 36 101
-9 9 -211 152 -231 164 -17 10 -67 -36 -156 -144 -110 -132 -242 -346 -297
-483 -13 -32 -25 -55 -26 -50 -12 34 209 800 260 903 l32 65 84 7 c251 21 471
120 497 225 10 38 -12 112 -45 153 -37 46 -164 136 -220 155 -101 34 -208 13
-296 -60 -70 -57 -171 -217 -220 -348 -20 -54 -20 -54 -101 -1 -65 43 -125
109 -156 172 -19 39 -23 63 -23 137 0 79 4 96 28 144 85 160 273 249 470 222
129 -18 158 -33 477 -243 181 -120 419 -259 505 -297 43 -19 174 -26 218 -12
58 19 115 67 140 118 37 72 41 92 23 99 -11 4 -31 -11 -62 -45 -62 -69 -117
-85 -264 -79 -92 4 -115 8 -172 35 -77 36 -257 148 -453 281 -163 111 -253
156 -350 177 -66 14 -169 18 -225 8z m543 -414 c23 -12 57 -35 75 -53 64 -59
78 -115 43 -172 -39 -64 -244 -142 -420 -160 l-73 -7 39 62 c86 141 201 251
260 251 14 0 21 4 18 10 -16 26 -131 -5 -177 -47 -10 -9 -20 -14 -23 -11 -3 3
22 31 55 61 52 49 92 71 158 86 1 1 22 -8 45 -20z"/>
<path d="M10768 3662 l-147 -64 -46 -117 c-136 -342 -191 -465 -216 -483 -17
-13 -52 -22 -102 -27 -60 -5 -82 -12 -102 -31 -34 -32 -32 -40 15 -40 70 0
150 -43 150 -81 0 -10 -22 -96 -49 -191 -84 -298 -166 -674 -196 -903 l-14
-110 57 -105 c32 -58 68 -130 81 -160 13 -30 48 -104 78 -164 30 -59 53 -109
51 -110 -2 -1 -34 -21 -73 -43 -38 -23 -121 -85 -184 -139 -274 -238 -381
-314 -498 -353 -112 -38 -247 -21 -357 43 -61 35 -86 73 -86 129 0 49 35 108
87 145 49 34 152 64 245 70 75 4 92 2 128 -17 50 -26 60 -26 60 -2 0 23 -51
74 -99 98 -50 25 -173 24 -220 -1 -55 -29 -175 -137 -212 -190 -29 -42 -34
-57 -34 -107 0 -48 5 -64 30 -100 60 -85 219 -146 355 -136 162 11 291 85 555
317 159 140 200 172 269 214 l58 35 71 -107 c128 -193 286 -322 391 -322 41 1
41 1 -24 23 -108 37 -213 128 -284 247 -25 42 -23 41 41 -26 126 -132 194
-174 283 -174 46 0 54 4 93 43 58 58 107 176 107 255 0 104 -55 176 -154 203
-54 15 -200 5 -296 -21 -41 -11 -80 -20 -86 -20 -28 0 -131 271 -155 406 -30
172 30 525 166 984 24 80 53 177 64 216 20 67 24 72 68 97 43 22 152 57 182
57 6 0 -3 -27 -19 -61 -130 -257 -208 -588 -217 -926 l-6 -192 93 -101 c51
-55 95 -100 99 -100 3 0 18 48 34 106 51 194 167 458 300 679 53 89 206 315
212 315 2 0 -5 -33 -16 -72 -64 -250 -42 -388 61 -388 21 0 42 4 45 10 3 6 -4
10 -18 10 -32 0 -57 29 -63 76 l-6 39 21 -33 c27 -42 81 -65 132 -57 42 7 138
61 183 103 l29 27 -7 -35 c-3 -19 -13 -82 -21 -140 -8 -58 -19 -129 -25 -159
-18 -97 -13 -156 20 -221 16 -32 34 -61 40 -65 6 -3 32 -39 59 -78 55 -82 127
-152 176 -173 49 -20 121 -18 171 7 88 42 199 195 277 379 127 302 198 691
138 764 -5 6 -32 57 -61 114 -92 182 -159 242 -266 242 -114 0 -213 -98 -341
-335 -23 -44 -43 -77 -43 -73 -1 37 116 306 161 370 25 34 24 46 0 24 -63 -58
-167 -252 -221 -416 -34 -101 -58 -132 -100 -128 -22 3 -25 8 -28 51 -4 63 28
189 71 276 l35 70 -125 86 -124 86 -22 -27 c-12 -15 -45 -55 -75 -88 -125
-143 -277 -381 -403 -631 -75 -147 -90 -172 -85 -135 28 179 152 477 267 640
22 31 39 60 39 65 0 11 -211 158 -232 163 -17 3 -82 -103 -152 -248 -31 -63
-56 -110 -56 -103 0 14 54 170 82 236 11 26 26 47 32 47 12 0 66 51 66 61 0 3
-32 5 -70 6 -75 1 -153 31 -174 65 -25 41 44 220 141 365 67 101 161 202 243
264 39 29 68 54 66 57 -9 8 -188 -93 -246 -139 l-58 -47 25 56 c13 31 34 72
45 90 11 17 18 36 16 40 -2 5 -69 -20 -150 -56z m1557 -915 l27 -22 -47 -185
c-67 -264 -106 -376 -185 -535 -80 -162 -153 -258 -224 -296 -45 -24 -46 -27
-24 -32 32 -8 89 8 124 36 l29 22 -22 -31 c-35 -49 -91 -94 -118 -94 -28 0
-85 45 -85 68 0 10 21 100 45 202 110 450 219 732 326 843 40 41 50 47 87 47
28 0 49 -7 67 -23z m-1424 -1630 c88 -46 111 -155 54 -252 -36 -62 -61 -80
-110 -79 -54 1 -114 36 -182 106 -52 54 -156 198 -149 206 18 17 155 41 242
41 86 1 107 -2 145 -22z"/>
<path d="M9635 3552 c-333 -184 -587 -357 -731 -498 l-83 -81 24 48 c55 108
201 250 418 407 65 46 115 87 113 90 -9 8 -251 -138 -339 -204 -115 -87 -236
-216 -275 -293 -39 -78 -43 -155 -12 -248 25 -72 63 -113 135 -148 95 -44 166
-56 405 -65 342 -12 478 -51 541 -154 39 -64 18 -130 -114 -351 -135 -229
-288 -395 -426 -463 -70 -34 -81 -37 -166 -37 -86 0 -96 2 -171 39 -100 50
-229 177 -324 318 -36 54 -69 97 -73 98 -15 0 106 -223 162 -298 76 -102 147
-164 239 -209 73 -37 80 -38 177 -37 111 0 159 15 263 79 l57 36 -76 -73
c-131 -127 -293 -226 -464 -284 -106 -36 -263 -45 -351 -19 -71 20 -146 66
-179 109 -13 17 -36 65 -50 106 -15 41 -45 114 -67 163 -32 66 -46 87 -61 87
-19 0 -20 -5 -13 -92 10 -126 37 -185 125 -270 128 -123 217 -161 376 -161
425 3 883 369 1206 963 114 211 138 260 159 329 53 168 -1 275 -167 332 -80
27 -236 55 -473 84 -228 28 -297 45 -341 86 -52 48 -30 112 68 201 53 47 197
143 294 196 l76 42 54 -72 c154 -206 335 -232 514 -75 l49 44 -46 7 c-56 8
-122 51 -167 106 -36 45 -98 172 -107 220 -4 16 -9 30 -13 30 -3 0 -78 -40
-166 -88z"/>
<path d="M14150 3043 c-102 -36 -195 -188 -296 -483 -23 -69 -43 -121 -43
-117 -2 17 50 235 70 297 12 36 35 98 51 138 17 40 28 76 25 79 -7 7 -80 -137
-111 -219 -69 -186 -110 -379 -136 -655 -11 -114 -24 -228 -29 -253 -7 -32 -6
-48 2 -56 7 -6 64 -46 127 -89 l115 -78 192 389 c130 263 191 376 187 349 -11
-78 -85 -402 -125 -550 -115 -424 -297 -887 -435 -1102 l-34 -53 -88 0 c-76 0
-92 3 -123 25 -107 72 -222 317 -263 560 l-7 40 19 -30 c43 -67 118 -115 180
-115 47 0 124 27 192 68 74 45 89 67 33 46 -88 -31 -150 -5 -189 79 -33 74
-44 141 -44 277 0 310 137 747 351 1121 28 50 49 92 46 95 -10 10 -191 -235
-231 -314 -10 -19 -20 -32 -22 -29 -8 7 57 189 93 261 19 37 33 70 31 71 -2 2
-59 42 -126 89 l-123 85 -18 -30 c-10 -16 -148 -252 -307 -523 -159 -272 -290
-492 -292 -491 -1 1 8 53 22 116 49 228 145 470 280 705 l35 61 -119 82 c-84
57 -124 80 -135 74 -24 -14 -172 -252 -234 -378 -96 -194 -162 -395 -190 -575
-13 -86 -25 -257 -18 -249 4 3 18 68 32 145 26 141 74 310 119 419 14 33 25
57 26 53 0 -3 -11 -53 -24 -110 -27 -114 -61 -337 -71 -468 l-6 -86 98 -103
98 -103 279 516 c154 283 281 515 282 513 0 -1 -16 -72 -36 -157 -106 -436
-130 -678 -95 -974 30 -258 79 -438 161 -598 38 -72 61 -102 131 -167 69 -65
93 -81 135 -91 l50 -12 -73 -75 c-96 -96 -150 -123 -244 -123 -136 0 -226 74
-255 209 -12 58 -10 158 5 281 l5 45 -21 -45 c-68 -148 -78 -319 -24 -419 60
-109 174 -161 370 -168 103 -4 127 -2 173 15 28 11 52 18 52 17 0 -2 -28 -24
-62 -48 -238 -169 -529 -222 -850 -157 -162 34 -259 97 -316 205 -23 44 -26
62 -27 145 0 52 4 112 8 133 8 36 7 38 -15 35 -34 -5 -91 -150 -92 -233 0 -71
37 -150 89 -189 59 -45 239 -125 330 -147 81 -19 110 -21 280 -16 162 4 205 9
289 31 229 60 446 212 601 421 58 79 180 285 248 422 179 356 369 904 501
1443 24 102 46 194 48 204 3 16 -18 26 -142 67 -79 27 -150 49 -156 49 -6 0
-79 -125 -162 -277 -217 -400 -214 -396 -207 -353 14 78 98 411 126 505 60
194 131 315 187 315 40 0 61 -19 110 -93 l46 -71 8 32 c10 37 -2 69 -61 169
-80 137 -180 205 -261 176z"/>
<path d="M4973 2947 c-11 -12 -39 -49 -61 -82 -113 -169 -192 -400 -232 -672
-11 -78 -25 -165 -30 -194 -18 -95 -13 -154 20 -219 16 -32 34 -61 40 -65 6
-3 32 -39 59 -78 55 -82 127 -152 176 -173 49 -20 121 -18 171 7 88 42 199
195 277 379 127 302 198 691 138 764 -5 6 -32 57 -61 114 -92 182 -159 242
-266 242 -114 0 -213 -98 -341 -335 -23 -44 -43 -77 -43 -73 -1 38 116 306
162 371 25 35 19 45 -9 14z m372 -200 l27 -22 -47 -185 c-67 -264 -106 -376
-185 -535 -80 -162 -153 -258 -224 -296 -45 -24 -46 -27 -24 -32 32 -8 89 8
124 36 l29 22 -22 -31 c-35 -49 -91 -94 -118 -94 -28 0 -85 45 -85 68 0 10 21
100 45 202 110 450 219 732 326 843 40 41 50 47 87 47 28 0 49 -7 67 -23z"/>
</g>
</svg>
