<svg version="1" xmlns="http://www.w3.org/2000/svg" width="1956" height="572" viewBox="0 0 1467 429">
  <path fill="#fff" d="M556.5 1c-8.6 1.3-20.7 5-29 8.9-14.9 7.1-28 17.8-46.9 38.3l-11.8 12.7-12.1-8.1c-6.7-4.4-15.6-9.7-19.7-11.7-13.4-6.4-28.4-5.5-45.5 2.9-15.1 7.5-22.5 16.3-22.5 27 0 10.3 7.1 19.3 19.8 25.3 5.6 2.7 8.2 3.2 15.3 3.5 17.9.8 34.9-6.7 56.5-24.9 9.2-7.7 9.5-7.9 11.8-6.4l2.4 1.6-3.3 7.2a621.1 621.1 0 0 0-23.2 68.2l-7.5 25.7c-.6 1.5-4.4 5.9-8.5 9.8-6 5.7-8 7.1-10.1 6.8-2.5-.3-2.7-.7-3-5.1a68.6 68.6 0 0 1 7.1-27.6l3.5-7-12.5-8.6-12.4-8.6-2.2 2.7a327.6 327.6 0 0 0-47.8 71.9c-7.5 14.7-9 17.2-8.5 13.5a187 187 0 0 1 26.7-64c2.2-3.1 3.9-6 3.9-6.5a158 158 0 0 0-23.2-16.3c-1.4-.3-2.2.8-8.4 11.6-3.8 6.6-4.2 7-4.7 4.6-.3-1.6.5-4.8 2-8.2 2.7-6.1 2.5-8-.3-3.3-2 3.4-3.4 4-3.4 1.6 0-3.1-6.2-17.5-10.1-23.6a89 89 0 0 0-20.8-21.8 80.4 80.4 0 0 0-24-9.1 17 17 0 0 0-13.8 5.6c-2.9 2.9-4.3 5.2-4.3 7 0 2.1.4 2.5 1.8 2.1l6.2-2.1 11.7-3.6 7.2-2.2 6.3 2.9c13.2 6.2 22.4 16.2 30.4 32.8a72.7 72.7 0 0 1 5.5 15.1c1.2 6 1.2 6.1-3.1 16.9-4 9.8-4.7 10.9-7.9 12.2-4.8 2-10.8 1.2-15.9-2.2-3.3-2.2-5.3-4.8-9.3-12.5-8.1-15.5-17.1-24-25.3-24-9.9 0-19.7 12.5-29.7 38a34.8 34.8 0 0 1-3.8 8.2c-.2-2.8 8.3-26 12.2-33.6 5.4-10.5 5.4-10.5 2.5-7.8-6.5 6-16.3 28.2-21.9 49.9a445.9 445.9 0 0 0-10.9 69.4c0 3.8.6 4.2 22.2 18.3l2.7 1.8 15.1-29.9a197.7 197.7 0 0 1 14.6-26.8l-2.5 14c-4.2 23.5-3.7 40.1 1.6 50.5 3.3 6.5 7.4 9 14.6 9 5.4 0 5.6-1.4.4-2.4-1.9-.3-4.4-1.8-5.7-3.1l-2.4-2.5 3.3 1.6c7.6 3.8 21.4-.6 34.9-11l6.9-5.4 3.6 3.6c2 2 3.8 3.4 4 3.2a299.8 299.8 0 0 1 46.5-99.3c4.1-5.9 7.6-10.7 7.7-10.7.2 0-.5 3.3-1.6 7.2-6.4 25-4.2 38.8 6.1 38.8 2.1 0 4.2-.5 4.5-1 .3-.6-.4-1-1.8-1-3.2 0-5.7-2.9-6.3-7.6l-.6-3.9 2.1 3.3c2.7 4.2 8.1 6.5 13.1 5.7 8-1.4 22.5-12.7 31.9-25 1.2-1.7 2-2.5 1.8-2-1.1 2.2-7.9 34.1-10.1 47.6l-2.5 14.3 3.4 6.1c1.8 3.3 5.6 10.9 8.3 17 19 41.6 24.8 53.8 29.5 62.5l5.4 9.8-3.8 3.7c-11.8 11.4-9.9 25.2 4.6 33.1a47.7 47.7 0 0 0 45.8.9l5-2.4 4.8 2.5c21.5 10.9 41.8 5.8 69.8-17.4l8.4-7 6.5 5.5c7.7 6.6 15.2 10.3 20.7 10.3 3.9-.1 3.9-.1-2.5-2.3-9.4-3.2-23.2-13.9-21.5-16.6.4-.7 3 .7 7 3.9 7.1 5.7 12 8 16.6 8 2.5 0 4.5 1.2 8.9 5.4 10.3 9.8 17.8 12 32.1 9.1a47.1 47.1 0 0 0 20.7-8.8c3.1-2.9 6.8-9.4 8.1-14.4.6-2.3 2.3-6.6 3.6-9.5 6.5-14 .8-28.2-12.9-31.9-5.4-1.5-20-.5-29.6 2.1-4.1 1.1-8 2-8.6 2-2.5 0-12-23.9-14.9-37.5-2.6-12.1-2.1-15.1 3.4-24.3 5.2-8.6 12.9-18.8 18-23.6l3.1-2.9-.6 7.9c-1.2 15.7 2.8 29.7 10.6 36.8 4 3.6 12 6.6 17.4 6.5 2.6 0 2-.4-3.3-2.4a26 26 0 0 1-14.5-11.7c-1.9-3.2-1.9-3.2 2.8 1a32.8 32.8 0 0 0 19.2 9.2c9 0 18.4-7.5 26.6-21.3 4.6-7.7 11.7-24.2 11.8-27.2 0-1.1-1.5 1.5-3.4 5.7a72 72 0 0 1-13.4 22c-5.3 5.6-9.7 7.4-14.5 5.9-10.9-3.6-16-20.8-12.7-42.8 1.2-8.2 1.2-8.3 5.9-11.7 9.2-6.7 25.4-13.2 43.1-17.2 11.3-2.6 14-3.5 14-4.4 0-.6-1.5-1-3.4-1-8.2 0-13.2-7.6-14.3-22.1a104.6 104.6 0 0 1 3.4-31.5c-.2-.2-11.4 4.8-24.8 11.1l-24.4 11.4-7.1 14.6a209.8 209.8 0 0 0-16.5 46.1c-1.2 6.6-1.6 7.2-8.9 15-4.1 4.4-9.8 11.3-12.5 15.2-2.6 4-5 7-5.2 6.8-.3-.2.5-6.2 1.7-13.3 2.5-14.6 8.2-38.1 14.5-59.3l6.4-21.6c2-6.7 2.4-7.2 6.8-9.7a57.1 57.1 0 0 1 20.5-5.7c2.4 0 4.2-.8 6.1-2.8 1.5-1.5 2.7-3 2.7-3.3 0-.3-3.2-.5-7-.6-7.5-.1-15.3-3.1-17.4-6.5-2.5-4.1 4.4-22 14.1-36.5A115.1 115.1 0 0 1 714 62.9c3.9-2.9 6.8-5.4 6.6-5.7-.9-.8-18.8 9.3-24.6 13.9l-5.8 4.7 2.5-5.6c1.3-3.1 3.4-7.2 4.5-9 1.1-1.7 1.8-3.6 1.6-4a66 66 0 0 0-15 5.6l-14.7 6.4-4 10.2c-12.4 31.6-19.3 47.3-21.6 49.3-4 3.5-10.6 4-16.2 1.2-6.3-3.2-7-4.6-5.6-11.1 3.6-17 21.8-43.6 38.3-55.9 3.9-2.9 6.8-5.4 6.6-5.7-.9-.8-18.8 9.3-24.6 13.9l-5.8 4.7 2.5-5.6c1.3-3.1 3.4-7.2 4.5-9 1.1-1.7 1.8-3.6 1.6-4a66 66 0 0 0-15 5.6l-14.7 6.4-4.6 11.7c-13.6 34.2-19.1 46.5-21.6 48.3a22.2 22.2 0 0 1-10.2 2.7c-6 .5-8.2 1.2-10.2 3.1-3.4 3.2-3.2 4 1.5 4 7 0 15 4.3 15 8.1 0 1-2.2 9.6-4.9 19.1a744 744 0 0 0-19.6 90.3l-1.4 11 5.7 10.5c3.2 5.8 6.8 13 8.1 16 1.3 3 4.8 10.4 7.8 16.4 3 5.9 5.3 10.9 5.1 11l-7.3 4.4c-3.8 2.3-7.7 4.7-8.6 5.4-1.3.9-2.2.7-4.5-.9a27.3 27.3 0 0 0-25.4-1.8 89.3 89.3 0 0 0-21.1 18.9c-3 4.3-3.4 5.6-3.4 11.2 0 6.2 0 6.3-3.7 8.4-3.4 1.9-3.9 2-7.3.6a66.4 66.4 0 0 1-20-19.7c-5.7-8.1-5.7-8 4.7-10.4 9.5-2.2 18.5-2 23.1.5 2 1.1 4.1 2 4.7 2 2.1 0 .9-3.9-2.1-6.8-5.2-5.1-9.5-6.7-17.9-6.7-8.3.1-12.2 1.6-17.7 6.7l-3.1 3-12.1-24.3a351.8 351.8 0 0 1-14.2-30.8 74.3 74.3 0 0 1-3-25.3l.7-3.3.7 4.1c.8 4.6 7.2 24.3 8.3 25.3.4.3.4-1 0-2.9-3.3-16-3.8-20.8-3.9-37-.1-26.5 3-45.1 12.9-78.9 9.2-31 25.7-80.1 26.9-80.1.3 0 3.5 2 7.2 4.4 15.7 10.1 27.5 14.6 38.2 14.6 7.5 0 11.4-1.8 15.3-7.2 11.6-15.5 1.3-35.1-25.1-48-9.6-4.7-11.2-5.2-17.6-5.2-11.6-.1-21.2 6-29.7 19-3.9 6-4.3 6.3-6 4.7-1.1-.9-1.5-2.1-1-2.9 2.1-3.8 28.1-29.9 34.7-34.9 20.2-15.2 39.7-22.6 59.7-22.7 30.3-.1 48.7 17.3 53.4 50.5.5 3.7 1 4.7 2.3 4.5 1.4-.3 1.6-2.1 1.6-12.8-.1-17.1-3.2-26.4-11.8-35.3-8.8-9-17.8-11.8-38.2-11.6-7.7.1-16.2.5-19 .9zM430.3 42.9c8.8 3.1 34.7 19 34.7 21.4 0 1.5-11.1 10.8-20.4 17.1-19.4 13.2-37.3 17.7-50.8 12.6-11.1-4.2-20.8-14.6-20.8-22.5 0-8.1 8.4-17.3 21.5-23.6 14.6-7 25.5-8.5 35.8-5zm101.5 11.2c5.6 2.7 15.6 12 18.7 17.3 3.9 6.7 4.1 11.2.8 17.6-5.1 9.9-13.3 11.8-27.6 6.2-9-3.5-28.7-15-28.7-16.8 0-2.7 10.8-17 15.4-20.5 8.1-6.2 14.2-7.2 21.4-3.8zm103.3 88.2c1.9 1.2 3.5 3.2 3.7 4.3.2 1.1-1.9 9.9-4.6 19.5a724.6 724.6 0 0 0-19.7 90.4l-1.4 11 5.8 10.6c5.6 10.2 5.8 10.7 5 15.5-.4 2.7-.8 7.7-.8 11.1-.1 5.8-.3 6.3-2.3 6.3-1.3 0-5.7.9-9.8 2-4.1 1.1-8 2-8.6 2-2.8 0-13.1-27.1-15.5-40.6-3-17.2 3-52.5 16.6-98.4l6.4-21.6c1.9-6.4 2.5-7.2 6.2-9.4a43.6 43.6 0 0 1 14-4.9c.9-.1 3.1.9 5 2.2zm-347.3 14.1c1.5.8 5.7 4.8 9.4 8.9 8.2 9.1 12.5 11.1 22.3 10.5 5.5-.3 6.4-.2 6.1 1.2a232.3 232.3 0 0 0-9.3 60.8l-.6 19.3 4.9 5 4.9 5-2.3 1.9c-2.9 2.4-12.5 6-15.8 6-7.2 0-9.8-5-9.8-18.5.1-14.5 5.9-37 15.6-60.4 2.1-5.2 3.5-9.8 3.1-10.1a506 506 0 0 0-24.7-16.8l-1.5 3.3c-2.1 5-35.4 65.5-35.8 65.1-.6-.5 9.4-42.3 12.9-54.1 5.1-17.3 11.6-28.5 16.5-28.5.8 0 2.6.6 4.1 1.4zm431.4 22.1c1.2 1.6 2.8 3.4 3.6 3.9 1 .6-1 2.1-7.8 5.7a164 164 0 0 0-14.1 8.4c-2.7 1.9-4.9 3.1-4.9 2.6a156 156 0 0 1 14.8-34l2.6-4.4 1.8 7.4c1 4.1 2.8 8.7 4 10.4zM623.4 319c1.8 12.2 2 11.2-2.5 14.9-3.4 2.8-4.3 3.1-5.4 2a108 108 0 0 1-11.1-16.7 88 88 0 0 1 16.3-4.1c1.7-.1 2.2.6 2.7 3.9zm73.7-1.7c8.8 4.6 11.1 15.5 5.4 25.2-3.6 6.2-6.1 8-11 7.9-5.4-.1-11.4-3.6-18.2-10.6a99.1 99.1 0 0 1-14.9-20.6 68.7 68.7 0 0 1 24.2-4.1c8.6-.1 10.7.2 14.5 2.2zm-95.8 27.1l3.1 3.9-3 2.4c-25.7 21.3-36.9 26.9-51.9 26-7.5-.4-19.5-3.8-19.5-5.5 0-.4 2.8-2.7 6.1-5.1 3.3-2.4 11.8-9.4 18.8-15.7 10.1-8.8 13.3-11.2 15-10.7 1.7.4 2.1.1 2.1-1.8.1-2.6 1.9-4.2 10.8-9.5l5.4-3.3 5 7.7c2.8 4.2 6.4 9.5 8.1 11.6zm47.5-2.2c-2.7 4.8-5.6 7.5-8.9 8.3-2.8.7-3.5-.3-7.9-13.1l-1.8-5.1 6-3.6 6.1-3.6 4.3 6.7 4.3 6.7-2.1 3.7zm-92.3.4a345.8 345.8 0 0 1-28.6 23.2c-.6.3-.7-.6-.3-2.2.8-3.4-1.5-4.3-5-2.1l-2.6 1.7v-4.9c0-12.8 14.9-22 36-22.2h7.5l-7 6.5zm-76.5 7.1a63.7 63.7 0 0 0 22.2 21.9c6.7 3.5 7.1 3.9 4.8 4.5-11.9 3.3-33-2.6-38.9-11-2.6-3.6-2.8-10.6-.4-14.1 2-3.2 6.5-8 7.2-8 .3 0 2.6 3.1 5.1 6.7zm178.3-1.7a71.4 71.4 0 0 0 18.5 16.3c4 2.2 4.1 2.5 2.5 4-2.9 2.5-7 3.7-13.1 3.7-7 0-12.5-2.4-18.6-8l-4.6-4.2 3.1-3.6a34 34 0 0 0 5.2-8.4c1.1-2.6 2.2-4.8 2.6-4.8.3.1 2.3 2.3 4.4 5z"/>
  <path fill="#fff" d="M174 16.7a49.4 49.4 0 0 0-26 12.9 39 39 0 0 0-12.5 32.1l.6 4.4-3.8-4.2-3.8-4.1L122 59c-28.5 5-58.5 22.4-77.6 45a79 79 0 0 1-7.2 8c-.6 0 2.6-5 10-15.5 3.5-4.9 10.8-13.6 16.2-19.3a59 59 0 0 1 17.9-14.4c12.7-6.6 24.4-18.9 18-18.8-5.6.1-22.3 8.3-22.3 11 0 .5-5.1 6.3-11.3 12.7A234.9 234.9 0 0 0 3.1 190c-4.8 34.5-4.2 57.9 1.9 80 4.5 16.2 18.4 40 23.3 40 4.8 0 20.7-3.9 28.2-6.9a94.1 94.1 0 0 0 47.9-42.8c1.4-2.9 2.6-5.5 2.6-5.9 0-.4-4.8 4.2-10.7 10.2-15.7 15.8-33.7 27.5-44.7 29l-4.1.6-3.7-7.5a122 122 0 0 1-12.4-52.2l-.3-13 1.4 10c.8 5.5 2.4 14.3 3.5 19.5 2.5 10.9 9.9 34.4 10.7 33.7.2-.3-.9-5.9-2.6-12.6a168.5 168.5 0 0 1-5.8-54.6c.7-29.7 4.2-45.5 15.8-69.5a136.9 136.9 0 0 1 24.4-36.8A160.2 160.2 0 0 1 124.7 84l7.5-2.9 3.3 7.2c9.4 20.4 8.3 49.6-2.3 60.9-2 2.2-3.5 2.8-6.7 2.8-4.5 0-7-1.4-13.2-7.3-6.6-6.4-6.1-3.6.7 3.6 6.2 6.7 14.3 11.7 18.7 11.7 5.9 0 11.9-5.7 15.1-14.3a87.2 87.2 0 0 0 .6-56.6l-1.4-3.3 4.3 3.4c2.3 1.9 6.2 4.7 8.8 6.1l4.5 2.7-7.2 21.7a838.6 838.6 0 0 0-28.9 113l-2.5 14.4 8.1 14.6a397 397 0 0 1 16.1 34.2c10 24.7 22.8 51 30.6 62.6 10.4 15.6 24.3 26.8 33.2 26.7 5.5-.1 7.9-1.7 10.2-6.9 1.8-4.1 1.8-4.7.4-6.1-1.2-1.3-1.8-1.3-3.1-.2-.9.7-4.6 2.3-8.3 3.6-6 2-7 2.1-9.4.8a72.5 72.5 0 0 1-17.6-18.1 423.4 423.4 0 0 1-31.8-63.4 46.8 46.8 0 0 1-5.1-22.4c-.4-9.2 0-12.9 2.1-23 7.3-33 22.3-64.6 43.7-91.4l2.6-3.3-3.4 11.8c-1.8 6.6-5.3 18-7.8 25.4-5.5 17.1-8 26.8-10.5 41.7-3.1 18-2.6 43.6 1 50.2.4.8.5-2.9.2-8.1-.2-5.4.1-14.1.9-19.9l1.3-10.4.7 10.8c.8 12 3.5 22.3 7.3 27.8 3 4.4 9.8 7.9 15.2 7.9 8.3 0 24.1-6.6 31.5-13.1 3.9-3.4 3.7-3.4-4.6.6-11 5.3-18.1 3.2-22.6-6.7-2.2-4.9-2.4-6.5-2.3-21.3 0-12 .6-19.1 2.2-28.2a284.6 284.6 0 0 1 19.9-66.2c2.4-5.1 4.1-9.7 3.6-10.1-.9-.9-21.1-15.2-23.1-16.4-1.7-1-6.7 3.6-15.6 14.4a217.3 217.3 0 0 0-29.7 48.3c-1.3 3.2-2.5 5.5-2.6 5-1.2-3.4 20.9-80 26-90.3l3.2-6.5 8.4-.7c25.1-2.1 47.1-12 49.7-22.5 1-3.8-1.2-11.2-4.5-15.3a73.7 73.7 0 0 0-22-15.5 30.3 30.3 0 0 0-29.6 6 98.8 98.8 0 0 0-22 34.8c-2 5.4-2 5.4-10.1.1a47.2 47.2 0 0 1-15.6-17.2c-1.9-3.9-2.3-6.3-2.3-13.7 0-7.9.4-9.6 2.8-14.4a45.6 45.6 0 0 1 47-22.2c12.9 1.8 15.8 3.3 47.7 24.3 18.1 12 41.9 25.9 50.5 29.7a48.8 48.8 0 0 0 21.8 1.2 25.3 25.3 0 0 0 14-11.8c3.7-7.2 4.1-9.2 2.3-9.9-1.1-.4-3.1 1.1-6.2 4.5-6.2 6.9-11.7 8.5-26.4 7.9-9.2-.4-11.5-.8-17.2-3.5a459.2 459.2 0 0 1-45.3-28.1c-16.3-11.1-25.3-15.6-35-17.7a71.9 71.9 0 0 0-22.5-.8zm54.3 41.4c2.3 1.2 5.7 3.5 7.5 5.3 6.4 5.9 7.8 11.5 4.3 17.2-3.9 6.4-24.4 14.2-42 16l-7.3.7 3.9-6.2c8.6-14.1 20.1-25.1 26-25.1 1.4 0 2.1-.4 1.8-1-1.6-2.6-13.1.5-17.7 4.7-1 .9-2 1.4-2.3 1.1-.3-.3 2.2-3.1 5.5-6.1 5.2-4.9 9.2-7.1 15.8-8.6.1-.1 2.2.8 4.5 2zM1076.8 62.8l-14.7 6.4-4.6 11.7c-13.6 34.2-19.1 46.5-21.6 48.3a22.2 22.2 0 0 1-10.2 2.7c-6 .5-8.2 1.2-10.2 3.1-3.4 3.2-3.2 4 1.5 4 7 0 15 4.3 15 8.1 0 1-2.2 9.6-4.9 19.1a744 744 0 0 0-19.6 90.3l-1.4 11 5.7 10.5c3.2 5.8 6.8 13 8.1 16 1.3 3 4.8 10.4 7.8 16.4 3 5.9 5.3 10.9 5.1 11l-7.3 4.3c-3.8 2.3-12.1 8.5-18.4 13.9-27.4 23.8-38.1 31.4-49.8 35.3a44.3 44.3 0 0 1-35.7-4.3c-6.1-3.5-8.6-7.3-8.6-12.9 0-4.9 3.5-10.8 8.7-14.5a55.6 55.6 0 0 1 24.5-7c7.5-.4 9.2-.2 12.8 1.7 5 2.6 6 2.6 6 .2 0-2.3-5.1-7.4-9.9-9.8-5-2.5-17.3-2.4-22 .1a91 91 0 0 0-21.2 19 14.5 14.5 0 0 0-3.4 10.7c0 4.8.5 6.4 3 10 6 8.5 21.9 14.6 35.5 13.6 16.2-1.1 29.1-8.5 55.5-31.7 15.9-14 20-17.2 26.9-21.4l5.8-3.5 7.1 10.7c12.8 19.3 28.6 32.2 39.1 32.2 4.1-.1 4.1-.1-2.4-2.3a56.3 56.3 0 0 1-28.4-24.7c-2.5-4.2-2.3-4.1 4.1 2.6 12.6 13.2 19.4 17.4 28.3 17.4 4.6 0 5.4-.4 9.3-4.3a42.5 42.5 0 0 0 10.7-25.5c0-10.4-5.5-17.6-15.4-20.3-5.4-1.5-20-.5-29.6 2.1-4.1 1.1-8 2-8.6 2-2.8 0-13.1-27.1-15.5-40.6-3-17.2 3-52.5 16.6-98.4l6.4-21.6c2-6.7 2.4-7.2 6.8-9.7a70.8 70.8 0 0 1 18.2-5.7c.6 0-.3 2.7-1.9 6.1a223.4 223.4 0 0 0-21.7 92.6l-.6 19.2 9.3 10.1c5.1 5.5 9.5 10 9.9 10 .3 0 1.8-4.8 3.4-10.6a286.8 286.8 0 0 1 30-67.9c5.3-8.9 20.6-31.5 21.2-31.5.2 0-.5 3.3-1.6 7.2-6.4 25-4.2 38.8 6.1 38.8 2.1 0 4.2-.4 4.5-1 .3-.6-.4-1-1.8-1-3.2 0-5.7-2.9-6.3-7.6l-.6-3.9 2.1 3.3c2.7 4.2 8.1 6.5 13.2 5.7a51 51 0 0 0 18.3-10.3l2.9-2.7-.7 3.5-2.1 14c-.8 5.8-1.9 12.9-2.5 15.9-1.8 9.7-1.3 15.6 2 22.1a29 29 0 0 0 4 6.5c.6.3 3.2 3.9 5.9 7.8a51.4 51.4 0 0 0 17.6 17.3c4.9 2 12.1 1.8 17.1-.7 8.8-4.2 19.9-19.5 27.7-37.9 12.7-30.2 19.8-69.1 13.8-76.4-.5-.6-3.2-5.7-6.1-11.4-9.2-18.2-15.9-24.2-26.6-24.2-11.4 0-21.3 9.8-34.1 33.5a41.2 41.2 0 0 1-4.3 7.3c-.1-3.7 11.6-30.6 16.1-37 2.5-3.4 2.4-4.6 0-2.4-6.3 5.8-16.7 25.2-22.1 41.6-3.4 10.1-5.8 13.2-10 12.8-2.2-.3-2.5-.8-2.8-5.1a68.6 68.6 0 0 1 7.1-27.6l3.5-7-12.5-8.6-12.4-8.6-2.2 2.7a327.6 327.6 0 0 0-47.8 71.9c-7.5 14.7-9 17.2-8.5 13.5a187 187 0 0 1 26.7-64c2.2-3.1 3.9-6 3.9-6.5a158 158 0 0 0-23.2-16.3c-1.7-.3-8.2 10.3-15.2 24.8-3.1 6.3-5.6 11-5.6 10.3 0-1.4 5.4-17 8.2-23.6 1.1-2.6 2.6-4.7 3.2-4.7 1.2 0 6.6-5.1 6.6-6.1 0-.3-3.2-.5-7-.6-7.5-.1-15.3-3.1-17.4-6.5-2.5-4.1 4.4-22 14.1-36.5a115.1 115.1 0 0 1 24.3-26.4c3.9-2.9 6.8-5.4 6.6-5.7-.9-.8-18.8 9.3-24.6 13.9l-5.8 4.7 2.5-5.6c1.3-3.1 3.4-7.2 4.5-9 1.1-1.7 1.8-3.6 1.6-4a66 66 0 0 0-15 5.6zm155.7 91.5l2.7 2.2-4.7 18.5a231.1 231.1 0 0 1-18.5 53.5c-8 16.2-15.3 25.8-22.4 29.6-4.5 2.4-4.6 2.7-2.4 3.2 3.2.8 8.9-.8 12.4-3.6l2.9-2.2-2.2 3.1c-3.5 4.9-9.1 9.4-11.8 9.4-2.8 0-8.5-4.5-8.5-6.8 0-1 2.1-10 4.5-20.2 11-45 21.9-73.2 32.6-84.3 4-4.1 5-4.7 8.7-4.7 2.8 0 4.9.7 6.7 2.3zm-142.4 163c8.8 4.6 11.1 15.5 5.4 25.2-3.6 6.2-6.1 8-11 7.9-5.4-.1-11.4-3.6-18.2-10.6a99.1 99.1 0 0 1-14.9-20.6 68.7 68.7 0 0 1 24.2-4.1c8.6-.1 10.7.2 14.5 2.2z"/>
  <path fill="#fff" d="M963.5 73.8c-33.3 18.4-58.7 35.7-73.1 49.8l-8.3 8.1 2.4-4.8c5.5-10.8 20.1-25 41.8-40.7a71.5 71.5 0 0 0 11.3-9c-.9-.8-25.1 13.8-33.9 20.4a110.4 110.4 0 0 0-27.5 29.3 30.4 30.4 0 0 0-1.2 24.8 23.5 23.5 0 0 0 13.5 14.8c9.5 4.4 16.6 5.6 40.5 6.5 34.2 1.2 47.8 5.1 54.1 15.4 3.9 6.4 1.8 13-11.4 35.1-13.5 22.9-28.8 39.5-42.6 46.3-7 3.4-8.1 3.7-16.6 3.7-8.6 0-9.6-.2-17.1-3.9-10-5-22.9-17.7-32.4-31.8a71.3 71.3 0 0 0-7.3-9.8c-1.5 0 10.6 22.3 16.2 29.8a63.7 63.7 0 0 0 23.9 20.9c7.3 3.7 8 3.8 17.7 3.7 11.1 0 15.9-1.5 26.3-7.9l5.7-3.6-7.6 7.3a125.2 125.2 0 0 1-46.4 28.4 68.6 68.6 0 0 1-35.1 1.9c-7.1-2-14.6-6.6-17.9-10.9a48.2 48.2 0 0 1-5-10.6 301 301 0 0 0-6.7-16.3c-3.2-6.6-4.6-8.7-6.1-8.7-1.9 0-2 .5-1.3 9.2 1 12.6 3.7 18.5 12.5 27 12.8 12.3 21.7 16.1 37.6 16.1 42.5-.3 88.3-36.9 120.6-96.3 11.4-21.1 13.8-26 15.9-32.9 5.3-16.8-.1-27.5-16.7-33.2-8-2.7-23.6-5.5-47.3-8.4-22.8-2.8-29.7-4.5-34.1-8.6-5.2-4.8-3-11.2 6.8-20.1 5.3-4.7 19.7-14.3 29.4-19.6l7.6-4.2 5.4 7.2c15.4 20.6 33.5 23.2 51.4 7.5l4.9-4.4-4.6-.7A29.4 29.4 0 0 1 992.1 90a78.4 78.4 0 0 1-10.7-22c-.4-1.6-.9-3-1.3-3-.3 0-7.8 4-16.6 8.8zM1415 124.7c-10.2 3.6-19.5 18.8-29.6 48.3-2.3 6.9-4.3 12.1-4.3 11.7a276 276 0 0 1 7-29.7c1.2-3.6 3.5-9.8 5.1-13.8 1.7-4 2.8-7.6 2.5-7.9a99 99 0 0 0-11.1 21.9c-6.9 18.6-11 37.9-13.6 65.5a482.3 482.3 0 0 1-2.9 25.3c-.7 3.2-.6 4.8.2 5.6l12.7 8.9 11.5 7.8 19.2-38.9c13-26.3 19.1-37.6 18.7-34.9-1.1 7.8-8.5 40.2-12.5 55-11.5 42.4-29.7 88.7-43.5 110.2l-3.4 5.3h-8.8c-7.6 0-9.2-.3-12.3-2.5-10.7-7.2-22.2-31.7-26.3-56l-.7-4 1.9 3c4.3 6.7 11.8 11.5 18 11.5 4.7 0 12.4-2.7 19.2-6.8 7.4-4.5 8.9-6.7 3.3-4.6-8.8 3.1-15 .5-18.9-7.9a61.4 61.4 0 0 1-4.4-27.7c0-31 13.7-74.7 35.1-112.1 2.8-5 4.9-9.2 4.6-9.5-1-1-19.1 23.5-23.1 31.4-1 1.9-2 3.2-2.2 2.9-.8-.7 5.7-18.9 9.3-26.1 1.9-3.7 3.3-7 3.1-7.1l-12.6-8.9-12.3-8.5-1.8 3-30.7 52.3c-15.9 27.2-29 49.2-29.2 49.1a249.1 249.1 0 0 1 30.2-82.1l3.5-6.1-11.9-8.2c-8.4-5.7-12.4-8-13.5-7.4-2.4 1.4-17.2 25.2-23.4 37.8a204 204 0 0 0-19 57.5c-1.3 8.6-2.5 25.7-1.8 24.9.4-.3 1.8-6.8 3.2-14.5 2.6-14.1 7.4-31 11.9-41.9 1.4-3.3 2.5-5.7 2.6-5.3l-2.4 11a386 386 0 0 0-7.1 46.8l-.6 8.6 9.8 10.3 9.8 10.3 27.9-51.6c15.4-28.3 28.1-51.5 28.2-51.3L1326 191c-10.6 43.6-13 67.8-9.5 97.4 3 25.8 7.9 43.8 16.1 59.8a51.3 51.3 0 0 0 13.1 16.7c6.9 6.5 9.3 8.1 13.5 9.1l5 1.2-7.3 7.5c-9.6 9.6-15 12.3-24.4 12.3-13.6 0-22.6-7.4-25.5-20.9-1.2-5.8-1-15.8.5-28.1l.5-4.5-2.1 4.5c-6.8 14.8-7.8 31.9-2.4 41.9 6 10.9 17.4 16.1 37 16.8 10.3.4 12.7.2 17.3-1.5 2.8-1.1 5.2-1.8 5.2-1.7 0 .2-2.8 2.4-6.2 4.8-23.8 16.9-52.9 22.2-85 15.7-16.2-3.4-25.9-9.7-31.6-20.5-2.3-4.4-2.6-6.2-2.7-14.5 0-5.2.4-11.2.8-13.3.8-3.6.7-3.8-1.5-3.5-3.4.5-9.1 15-9.2 23.3 0 7.1 3.7 15 8.9 18.9 5.9 4.5 23.9 12.5 33 14.7 8.1 1.9 11 2.1 28 1.6 16.2-.4 20.5-.9 28.9-3.1 22.9-6 44.6-21.2 60.1-42.1 5.8-7.9 18-28.5 24.8-42.2 17.9-35.6 36.9-90.4 50.1-144.3l4.8-20.4c.3-1.6-1.8-2.6-14.2-6.7-7.9-2.7-15-4.9-15.6-4.9-.6 0-7.9 12.5-16.2 27.7-21.7 40-21.4 39.6-20.7 35.3 1.4-7.8 9.8-41.1 12.6-50.5 6-19.4 13.1-31.5 18.7-31.5 4 0 6.1 1.9 11 9.3l4.6 7.1.8-3.2c1-3.7-.2-6.9-6.1-16.9-8-13.7-18-20.5-26.1-17.6zM497.3 134.3a91.2 91.2 0 0 0-6.1 8.2 165.1 165.1 0 0 0-23.2 67.2c-1.1 7.8-2.5 16.5-3 19.4-1.8 9.5-1.3 15.4 2 21.9a29 29 0 0 0 4 6.5c.6.3 3.2 3.9 5.9 7.8a51.4 51.4 0 0 0 17.6 17.3c4.9 2 12.1 1.8 17.1-.7 8.8-4.2 19.9-19.5 27.7-37.9 12.7-30.2 19.8-69.1 13.8-76.4-.5-.6-3.2-5.7-6.1-11.4-9.2-18.2-15.9-24.2-26.6-24.2-11.4 0-21.3 9.8-34.1 33.5a41.2 41.2 0 0 1-4.3 7.3c-.1-3.8 11.6-30.6 16.2-37.1 2.5-3.5 1.9-4.5-.9-1.4zm37.2 20l2.7 2.2-4.7 18.5a231.1 231.1 0 0 1-18.5 53.5c-8 16.2-15.3 25.8-22.4 29.6-4.5 2.4-4.6 2.7-2.4 3.2 3.2.8 8.9-.8 12.4-3.6l2.9-2.2-2.2 3.1c-3.5 4.9-9.1 9.4-11.8 9.4-2.8 0-8.5-4.5-8.5-6.8 0-1 2.1-10 4.5-20.2 11-45 21.9-73.2 32.6-84.3 4-4.1 5-4.7 8.7-4.7 2.8 0 4.9.7 6.7 2.3z"/>
</svg>
