<svg width="850" height="158" xmlns="http://www.w3.org/2000/svg" xmlns:svg="http://www.w3.org/2000/svg" preserveAspectRatio="xMidYMid meet">
 <title>Left Separator</title>
 <g>
  <path d="m610.35715,13.25714c-5.3,2 -11.1,8.3 -12.5,13.7c-1.6,5.7 -0.8,14.4 1.9,20.4l2.1,4.7l-2.8,-1.8c-6.4,-4.3 -18.1,-10.6 -23.1,-12.5c-17.3,-6.4 -34.4,-4.6 -45.3,5c-11.1,9.8 -11.7,27.2 -1.2,35.9c9.2,7.6 26.4,6 31,-2.9c3,-6 1.1,-13 -4.3,-15.8c-7.2,-3.7 -16.3,3.3 -15,11.6c0.6,3.7 0.1,4 -3.2,1.7c-3.2,-2.3 -5.2,-7.5 -4.4,-11.5c0.8,-4.3 7.7,-11.1 12.8,-12.6c11.8,-3.5 21.4,-2.1 41.8,6l12.9,5.1l-6.1,2c-12,3.7 -20.1,14.2 -20.1,25.9c0,3.5 0.7,7.4 1.7,9.4l1.6,3.5l1.4,-5.3c3.2,-12.4 14.3,-20.8 32.6,-24.6l8.7,-1.8l5.8,3.2c15,8.1 30.8,11.7 52.4,11.8c8.6,0 15.4,0.3 15,0.6c-1.4,1.2 -17.8,7.8 -23.5,9.4c-3.2,0.9 -8,2 -10.5,2.4l-4.7,0.7l5.3,1.2c11.5,2.6 27.8,0.8 44,-5c4.8,-1.7 15.6,-6.4 24.1,-10.4c8.5,-4.1 15.6,-7.4 15.9,-7.4c0.2,0 -1,1.6 -2.7,3.5c-8.2,9.4 -12.3,23.9 -10.2,36c0.7,3.7 1.1,6.8 0.9,7c-0.2,0.1 -15.4,-0.2 -33.8,-0.6c-53.7,-1.3 -175,-3.8 -261.5,-5.4c-44,-0.8 -99.1,-2 -122.5,-2.5c-71,-1.6 -192,-0.9 -238.5,1.4l-8,0.4l6.5,-1.5c13.8,-3 34.5,-11.4 38.5,-15.5c0.7,-0.7 -3.7,-0.9 -14,-0.4c-19,0.7 -33.4,2.9 -49,7.3c-1.1,0.3 3.5,-3.2 10.3,-7.7c6.8,-4.5 12.1,-8.4 11.9,-8.7c-0.7,-0.7 -10.3,1.4 -22.6,4.9c-10,2.9 -36.7,13.1 -38.4,14.7c-1,1 13,11.5 25.8,19.6c9.5,6 30.4,16.9 31.1,16.2c0.4,-0.4 -15.1,-17.5 -18.9,-20.9c-1.4,-1.2 0,-0.8 4.3,1.3c12.7,6.2 28,11 40.9,12.7l6,0.9l-2.1,-2.6c-1.1,-1.4 -5.2,-5 -9.1,-8c-4,-2.9 -7.4,-5.5 -7.7,-5.8c-0.2,-0.2 2.5,-0.2 6,0.2c10,0.8 54.7,2.4 104.5,3.6c44.2,1.1 403.30001,-0.1 501.50001,-1.7l39.5,-0.6l4.3,6.5c7.5,11.6 18.4,17.7 31.7,17.7c10.8,0 17.4,-2.7 25.1,-10.4c7.6,-7.6 9.8,-13.3 9.2,-24c-0.4,-9.2 -4,-15.6 -11.2,-20c-14.8,-9.2 -37.4,3.3 -32.6,18c2.5,7.3 11,9.8 16.9,4.8c5.2,-4.3 5.1,-10.3 -0.2,-16.2l-2,-2.2l3.2,0c5.3,0 11,3.6 13.2,8.3c2.2,4.9 2.3,7.5 0.7,12.9c-2.3,7.8 -13.3,15.8 -21.8,15.8c-6.6,0 -13.3,-3.1 -19,-8.8c-7.3,-7.4 -9.3,-13 -8.9,-24.5c0.5,-10.3 4.3,-18.7 11.9,-26.3c6.1,-6.1 10.1,-7.3 28,-8.1c13.6,-0.6 23.3,1.1 32.7,5.7c11,5.4 20.2,18.4 20.4,28.8l0.1,3.7l1.5,-3.5c4,-9.2 -1.1,-25.2 -11.2,-35.3c-9,-9.1 -20.5,-14.1 -48.5,-21.3c-18,-4.6 -31.6,-12 -37.9,-20.6c-4.2,-5.7 -4.2,-2.3 -0.1,6c4.3,8.5 13.5,16.8 25.1,22.6c5,2.5 8.5,4.6 7.7,4.6c-4.5,0 -21.2,2.7 -40.3,6.5c-29,5.7 -39.5,6.9 -57.9,6.2c-21.8,-0.8 -37.9,-5.4 -51.3,-14.5c-11.6,-8 -16.3,-14.9 -16.3,-23.9c0,-9.4 6.1,-14.9 15.7,-14.1c8.8,0.8 13.9,7.5 13.1,17.3c-0.2,2.7 0.1,4 0.6,3.5c0.5,-0.5 1.1,-3.4 1.4,-6.4c0.6,-7.1 -2.4,-13.7 -7.8,-17.2c-4.8,-3.2 -12.9,-4 -18.5,-2l-0.00001,0z" id="svg_3" fill="black"/>
 </g>
</svg>