<?xml version="1.0" standalone="no"?>
<!DOCTYPE svg PUBLIC "-//W3C//DTD SVG 20010904//EN"
 "http://www.w3.org/TR/2001/REC-SVG-20010904/DTD/svg10.dtd">
<svg version="1.0" xmlns="http://www.w3.org/2000/svg"
 width="1783.000000pt" height="189.000000pt" viewBox="0 0 1783.000000 189.000000"
 preserveAspectRatio="xMidYMid meet">
<metadata>
Created by potrace 1.15, written by Peter Selinger 2001-2017
</metadata>
<g transform="translate(0.000000,189.000000) scale(0.100000,-0.100000)"
fill="#000000" stroke="none">
<path d="M8903 1548 c-113 -180 -156 -292 -157 -413 -1 -124 46 -229 152 -345
l42 -45 44 48 c175 188 211 386 109 592 -30 61 -135 225 -145 225 -3 0 -24
-28 -45 -62z m98 -271 c67 -141 64 -231 -19 -429 -21 -48 -40 -88 -43 -88 -10
0 -77 160 -88 211 -16 69 -13 144 10 212 23 69 79 177 92 177 4 0 26 -37 48
-83z"/>
<path d="M6285 1546 c-53 -20 -111 -83 -125 -137 -16 -57 -8 -144 19 -204 l21
-47 -28 18 c-64 43 -181 106 -231 125 -173 64 -344 46 -453 -50 -111 -98 -117
-272 -12 -359 92 -76 264 -60 310 29 30 60 11 130 -43 158 -72 37 -163 -33
-150 -116 6 -37 1 -40 -32 -17 -32 23 -52 75 -44 115 8 43 77 111 128 126 118
35 214 21 418 -60 l129 -51 -61 -20 c-120 -37 -201 -142 -201 -259 0 -35 7
-74 17 -94 l16 -35 14 53 c32 124 143 208 326 246 l87 18 58 -32 c150 -81 308
-117 524 -118 86 0 154 -3 150 -6 -14 -12 -178 -78 -235 -94 -32 -9 -80 -20
-105 -24 l-47 -7 53 -12 c115 -26 278 -8 440 50 48 17 156 64 241 104 85 41
156 74 159 74 2 0 -10 -16 -27 -35 -82 -94 -123 -239 -102 -360 7 -37 11 -68
9 -70 -2 -1 -154 2 -338 6 -537 13 -1750 38 -2615 54 -440 8 -991 20 -1225 25
-710 16 -1920 9 -2385 -14 l-80 -4 65 15 c138 30 345 114 385 155 7 7 -37 9
-140 4 -190 -7 -334 -29 -490 -73 -11 -3 35 32 103 77 68 45 121 84 119 87 -7
7 -103 -14 -226 -49 -100 -29 -367 -131 -384 -147 -10 -10 130 -115 258 -196
95 -60 304 -169 311 -162 4 4 -151 175 -189 209 -14 12 0 8 43 -13 127 -62
280 -110 409 -127 l60 -9 -21 26 c-11 14 -52 50 -91 80 -40 29 -74 55 -77 58
-2 2 25 2 60 -2 100 -8 547 -24 1045 -36 442 -11 4033 1 5015 17 l395 6 43
-65 c75 -116 184 -177 317 -177 108 0 174 27 251 104 76 76 98 133 92 240 -4
92 -40 156 -112 200 -148 92 -374 -33 -326 -180 25 -73 110 -98 169 -48 52 43
51 103 -2 162 l-20 22 32 0 c53 0 110 -36 132 -83 22 -49 23 -75 7 -129 -23
-78 -133 -158 -218 -158 -66 0 -133 31 -190 88 -73 74 -93 130 -89 245 5 103
43 187 119 263 61 61 101 73 280 81 136 6 233 -11 327 -57 110 -54 202 -184
204 -288 l1 -37 15 35 c40 92 -11 252 -112 353 -90 91 -205 141 -485 213 -180
46 -316 120 -379 206 -42 57 -42 23 -1 -60 43 -85 135 -168 251 -226 50 -25
85 -46 77 -46 -45 0 -212 -27 -403 -65 -290 -57 -395 -69 -579 -62 -218 8
-379 54 -513 145 -116 80 -163 149 -163 239 0 94 61 149 157 141 88 -8 139
-75 131 -173 -2 -27 1 -40 6 -35 5 5 11 34 14 64 6 71 -24 137 -78 172 -48 32
-129 40 -185 20z"/>
<path d="M11467 1546 c-21 -8 -48 -22 -59 -33 -31 -27 -58 -92 -58 -141 0 -40
22 -112 35 -112 3 0 1 9 -5 19 -5 11 -10 38 -10 61 0 94 58 160 141 160 94 0
149 -53 149 -143 0 -62 -19 -105 -70 -161 -79 -85 -233 -164 -396 -203 -63
-14 -120 -18 -274 -18 -208 0 -247 5 -568 71 -89 18 -207 38 -262 45 l-99 12
89 44 c113 55 207 139 250 225 41 83 41 117 -1 60 -37 -51 -107 -103 -190
-142 -60 -27 -99 -39 -341 -105 -135 -37 -271 -106 -335 -171 -97 -100 -143
-239 -112 -344 l13 -45 7 53 c14 108 96 219 198 272 114 58 293 75 467 45 86
-15 91 -18 142 -68 77 -76 115 -157 120 -262 6 -116 -14 -173 -88 -247 -81
-81 -168 -105 -261 -73 -64 23 -108 62 -135 119 -29 61 -30 97 -5 153 24 51
57 74 119 81 l47 5 -30 -32 c-24 -26 -30 -41 -30 -77 0 -39 5 -50 33 -75 84
-75 199 1 173 115 -34 145 -269 191 -378 74 -61 -65 -81 -192 -46 -294 24 -71
119 -163 198 -193 84 -32 207 -27 287 12 67 33 127 89 169 158 l32 52 456 -7
c1124 -16 4484 -27 4926 -17 481 12 921 27 1048 37 42 3 77 3 77 1 0 -2 -25
-21 -55 -41 -60 -40 -135 -104 -135 -116 0 -9 94 5 200 31 97 24 190 59 269
101 l53 29 -101 -110 c-55 -61 -101 -113 -101 -116 0 -8 67 21 160 72 99 53
280 170 364 236 57 45 58 47 35 56 -13 5 -60 25 -105 44 -150 65 -474 160
-490 144 -3 -3 43 -38 103 -78 59 -39 112 -75 117 -80 5 -4 -26 1 -68 12 -122
31 -260 49 -426 55 -172 6 -172 7 -50 -55 80 -41 195 -81 300 -104 l65 -14
-70 4 c-421 22 -1720 30 -2420 13 -225 -5 -779 -16 -1230 -25 -451 -8 -1128
-22 -1505 -30 -377 -8 -827 -17 -1000 -20 -173 -3 -337 -8 -364 -11 l-48 -5 8
53 c25 151 -13 293 -104 391 -14 15 -23 27 -20 27 3 0 70 -31 149 -69 174 -83
249 -113 354 -141 106 -28 252 -36 330 -20 l60 14 -50 8 c-77 14 -203 55 -280
92 l-70 34 95 -5 c188 -11 393 27 548 102 104 50 109 51 205 30 93 -19 166
-55 222 -106 50 -46 71 -80 90 -144 l12 -40 17 32 c24 48 21 137 -8 198 -32
70 -103 131 -179 153 l-61 18 130 51 c170 68 203 76 304 77 76 0 91 -3 140
-29 68 -37 100 -82 100 -142 0 -36 -6 -50 -29 -74 -16 -16 -34 -29 -38 -29 -5
0 -9 22 -9 50 1 41 -4 54 -25 76 -56 56 -157 34 -177 -39 -14 -49 -4 -84 34
-122 77 -77 242 -65 317 24 36 44 50 95 44 162 -16 180 -215 293 -439 250 -67
-13 -219 -80 -290 -128 -24 -16 -48 -33 -55 -37 -7 -4 -3 14 8 40 48 107 34
222 -35 290 -60 61 -138 78 -219 50z"/>
</g>
</svg>
