<svg width="850" height="158" xmlns="http://www.w3.org/2000/svg" xmlns:svg="http://www.w3.org/2000/svg" preserveAspectRatio="xMidYMid meet">
 <title>Right Separator</title>
 <g>
  <path fill="black" id="svg_4" d="m224.70002,12.4c-2.1,0.8 -4.8,2.2 -5.9,3.3c-3.1,2.7 -5.8,9.2 -5.8,14.1c0,4 2.2,11.2 3.5,11.2c0.3,0 0.1,-0.9 -0.5,-1.9c-0.5,-1.1 -1,-3.8 -1,-6.1c0,-9.4 5.8,-16 14.1,-16c9.4,0 14.9,5.3 14.9,14.3c0,6.2 -1.9,10.5 -7,16.1c-7.9,8.5 -23.3,16.4 -39.6,20.3c-6.3,1.4 -12,1.8 -27.4,1.8c-20.8,0 -24.7,-0.5 -56.8,-7.1c-8.9,-1.8 -20.7,-3.8 -26.2,-4.5l-9.9,-1.2l8.9,-4.4c11.3,-5.5 20.7,-13.9 25,-22.5c4.1,-8.3 4.1,-11.7 -0.1,-6c-3.7,5.1 -10.7,10.3 -19,14.2c-6,2.7 -9.9,3.9 -34.1,10.5c-13.5,3.7 -27.1,10.6 -33.5,17.1c-9.7,10 -14.3,23.9 -11.2,34.4l1.3,4.5l0.7,-5.3c1.4,-10.8 9.6,-21.9 19.8,-27.2c11.4,-5.8 29.3,-7.5 46.7,-4.5c8.6,1.5 9.1,1.8 14.2,6.8c7.7,7.6 11.5,15.7 12,26.2c0.6,11.6 -1.4,17.3 -8.8,24.7c-8.1,8.1 -16.8,10.5 -26.1,7.3c-6.4,-2.3 -10.8,-6.2 -13.5,-11.9c-2.9,-6.1 -3,-9.7 -0.5,-15.3c2.4,-5.1 5.7,-7.4 11.9,-8.1l4.7,-0.5l-3,3.2c-2.4,2.6 -3,4.1 -3,7.7c0,3.9 0.5,5 3.3,7.5c8.4,7.5 19.9,-0.1 17.3,-11.5c-3.4,-14.5 -26.9,-19.1 -37.8,-7.4c-6.1,6.5 -8.1,19.2 -4.6,29.4c2.4,7.1 11.9,16.3 19.8,19.3c8.4,3.2 20.7,2.7 28.7,-1.2c6.7,-3.3 12.7,-8.9 16.9,-15.8l3.2,-5.2l45.6,0.7c112.4,1.6 448.40001,2.7 492.60001,1.7c48.1,-1.2 92.1,-2.7 104.8,-3.7c4.2,-0.3 7.7,-0.3 7.7,-0.1c0,0.2 -2.5,2.1 -5.5,4.1c-6,4 -13.5,10.4 -13.5,11.6c0,0.9 9.4,-0.5 20,-3.1c9.7,-2.4 19,-5.9 26.9,-10.1l5.3,-2.9l-10.1,11c-5.5,6.1 -10.1,11.3 -10.1,11.6c0,0.8 6.7,-2.1 16,-7.2c9.9,-5.3 28,-17 36.4,-23.6c5.7,-4.5 5.8,-4.7 3.5,-5.6c-1.3,-0.5 -6,-2.5 -10.5,-4.4c-15,-6.5 -47.4,-16 -49,-14.4c-0.3,0.3 4.3,3.8 10.3,7.8c5.9,3.9 11.2,7.5 11.7,8c0.5,0.4 -2.6,-0.1 -6.8,-1.2c-12.2,-3.1 -26,-4.9 -42.6,-5.5c-17.2,-0.6 -17.2,-0.7 -5,5.5c8,4.1 19.5,8.1 30,10.4l6.5,1.4l-7,-0.4c-42.1,-2.2 -172,-3 -242,-1.3c-22.5,0.5 -77.9,1.6 -123,2.5c-45.1,0.8 -112.8,2.2 -150.5,3c-37.7,0.8 -82.7,1.7 -100,2c-17.3,0.3 -33.7,0.8 -36.4,1.1l-4.8,0.5l0.8,-5.3c2.5,-15.1 -1.3,-29.3 -10.4,-39.1c-1.4,-1.5 -2.3,-2.7 -2,-2.7c0.3,0 7,3.1 14.9,6.9c17.4,8.3 24.9,11.3 35.4,14.1c10.6,2.8 25.2,3.6 33,2l6,-1.4l-5,-0.8c-7.7,-1.4 -20.3,-5.5 -28,-9.2l-7,-3.4l9.5,0.5c18.8,1.1 39.3,-2.7 54.8,-10.2c10.4,-5 10.9,-5.1 20.5,-3c9.3,1.9 16.6,5.5 22.2,10.6c5,4.6 7.1,8 9,14.4l1.2,4l1.7,-3.2c2.4,-4.8 2.1,-13.7 -0.8,-19.8c-3.2,-7 -10.3,-13.1 -17.9,-15.3l-6.1,-1.8l13,-5.1c17,-6.8 20.3,-7.6 30.4,-7.7c7.6,0 9.1,0.3 14,2.9c6.8,3.7 10,8.2 10,14.2c0,3.6 -0.6,5 -2.9,7.4c-1.6,1.6 -3.4,2.9 -3.8,2.9c-0.5,0 -0.9,-2.2 -0.9,-5c0.1,-4.1 -0.4,-5.4 -2.5,-7.6c-5.6,-5.6 -15.7,-3.4 -17.7,3.9c-1.4,4.9 -0.4,8.4 3.4,12.2c7.7,7.7 24.2,6.5 31.7,-2.4c3.6,-4.4 5,-9.5 4.4,-16.2c-1.6,-18 -21.5,-29.3 -43.9,-25c-6.7,1.3 -21.9,8 -29,12.8c-2.4,1.6 -4.8,3.3 -5.5,3.7c-0.7,0.4 -0.3,-1.4 0.8,-4c4.8,-10.7 3.4,-22.2 -3.5,-29c-6,-6.1 -13.8,-7.8 -21.9,-5z"/>
 </g>
</svg>